<?xml version="1.0" encoding="utf-8"?>
<!-- Generator: Adobe Illustrator 25.0.1, SVG Export Plug-In . SVG Version: 6.00 Build 0)  -->
<svg version="1.1" id="Layer_1" xmlns="http://www.w3.org/2000/svg" xmlns:xlink="http://www.w3.org/1999/xlink" x="0px" y="0px"
	 viewBox="0 0 39 36" style="enable-background:new 0 0 39 36;" xml:space="preserve">
<style type="text/css">
	.st0{fill-rule:evenodd;clip-rule:evenodd;}
</style>
<g id="arrow-bar-left" transform="translate(-1.999 -4.499)">
	<path id="Path_3" class="st0" d="M21.31,6.11c-0.96-0.96-2.51-0.97-3.47-0.01c0,0-0.01,0.01-0.01,0.01L3.08,20.85
		c-0.96,0.96-0.97,2.51-0.01,3.47c0,0,0.01,0.01,0.01,0.01l14.75,14.75c0.96,0.96,2.52,0.96,3.48,0c0.96-0.96,0.96-2.52,0-3.48l0,0
		L4.71,22.7L21.31,9.59c0.96-0.96,0.97-2.51,0.01-3.47C21.31,6.11,21.31,6.11,21.31,6.11z"/>
	<path id="Path_4" class="st0" d="M39.51,18.68L5.53,22.15c-1.36,0-2.47,0.26-2.47,0.58s1.1,0.58,2.47,0.58l34.19,2.39
		C41.08,25.7,40.87,18.68,39.51,18.68z"/>
</g>
</svg>
